<svg xmlns="http://www.w3.org/2000/svg" width="573" height="573" viewBox="0 0 573 573" version="1.1"><path d="M 274.500 212.054 C 237.494 215.216, 201.655 233.576, 178.052 261.464 C 161.634 280.863, 151.839 300.712, 145.961 326.500 C 143.307 338.142, 142.292 362.141, 143.931 374.500 C 145.260 384.523, 148.886 400, 149.904 400 C 150.267 400, 151.184 397.897, 151.943 395.327 C 154.368 387.115, 165.732 365.781, 172.359 357 C 185.798 339.194, 207.722 321.081, 226.129 312.576 C 283.729 285.963, 351.806 300.242, 393.252 347.629 C 404.564 360.563, 416.782 381.218, 420.978 394.500 C 421.673 396.700, 422.590 398.880, 423.015 399.344 C 423.998 400.417, 427.583 385.131, 428.954 374.026 C 436.305 314.482, 405.100 255.069, 352.078 227.657 C 334.146 218.387, 317.731 213.785, 296.235 212.004 C 289.781 211.469, 284.275 211.089, 284 211.158 C 283.725 211.228, 279.450 211.631, 274.500 212.054 M 277.500 410.388 C 261.221 414.352, 249.859 426.351, 246.798 442.813 C 241.957 468.839, 267.458 493.101, 293.866 487.595 C 302.625 485.769, 307.989 483.025, 314.246 477.173 C 337.394 455.521, 325.808 416.763, 294.201 410.115 C 287.704 408.748, 283.983 408.809, 277.500 410.388" stroke="none" fill="#04342b" fill-rule="evenodd"/><path d="M 10.891 1.475 C 7.904 3.125, 4.825 9.628, 2.270 19.682 C -0.268 29.669, -0.207 66.479, 2.370 80.500 C 6.699 104.048, 12.118 120.221, 23.481 143.500 C 36.640 170.459, 48.657 186.407, 71.107 206.704 C 87.966 221.947, 93.748 227.950, 108.955 246 C 122.435 262.001, 128.616 270.783, 134.153 281.804 L 137.830 289.123 142.818 278.812 C 164.521 233.951, 204.811 202.519, 254.352 191.801 C 268.216 188.801, 302.880 188.534, 316 191.326 C 349.703 198.498, 376.339 212.663, 399.357 235.653 C 413.247 249.527, 426.641 269.090, 432.626 284.246 C 433.657 286.857, 434.725 288.979, 435 288.962 C 435.275 288.946, 437.262 285.291, 439.416 280.840 C 444.407 270.526, 450.870 261.552, 467.192 242.273 C 482.362 224.355, 485.655 220.967, 502.357 206.088 C 516.444 193.539, 525.907 182.813, 535.340 168.703 C 547.437 150.608, 560.277 122.503, 565.508 102.672 C 568.378 91.792, 572 72.039, 572 67.266 C 572 65.265, 572.409 64.134, 573 64.500 C 573.653 64.904, 573.976 58.944, 573.930 47.309 C 573.891 37.514, 573.515 30.381, 573.094 31.457 C 572.551 32.846, 572.144 31.655, 571.695 27.357 C 571.347 24.025, 569.923 17.693, 568.530 13.285 C 565.518 3.750, 562.173 -0.251, 557.592 0.201 C 554.866 0.469, 554.420 1.011, 553.231 5.500 C 545.886 33.229, 536.901 54.607, 527.046 67.800 C 520.762 76.212, 501.731 95.180, 493 101.732 C 480.660 110.994, 458.512 121.450, 443.441 125.130 C 432.007 127.921, 416.312 128.133, 407.117 125.621 C 403.606 124.661, 388.531 119.832, 373.617 114.889 C 327.184 99.500, 313.707 96.684, 286.500 96.684 C 259.849 96.684, 244.896 99.726, 204 113.466 C 165.839 126.287, 161.193 127.451, 148.500 127.377 C 132.222 127.281, 120.997 124.027, 99.123 113.062 C 84.057 105.509, 74.509 98.243, 59.407 82.837 C 39.140 62.163, 32.329 49.735, 22.502 15.500 C 18.597 1.896, 17.978 0.478, 15.848 0.267 C 14.557 0.138, 12.326 0.682, 10.891 1.475 M 0.413 48.500 C 0.414 58.400, 0.564 62.315, 0.746 57.199 C 0.928 52.084, 0.927 43.984, 0.744 39.199 C 0.561 34.415, 0.412 38.600, 0.413 48.500 M 273.265 321.972 C 223.156 327.653, 180.971 360.967, 165.598 407 C 156.952 432.890, 156.713 460.639, 164.919 485.751 C 178.776 528.155, 213.713 559.834, 258 570.151 C 270.652 573.098, 293.825 573.752, 307.083 571.535 C 359.964 562.692, 400.417 524.097, 411.731 471.692 C 414.485 458.939, 414.138 432.563, 411.052 420 C 400.239 375.976, 369.477 342.178, 327.385 328.075 C 311.473 322.744, 288.905 320.199, 273.265 321.972 M 276.126 385.112 C 251.332 388.841, 229.830 408.289, 223.577 432.644 C 221.593 440.374, 221.574 453.567, 223.535 461.886 C 225.899 471.914, 232.383 483.322, 240.032 490.910 C 252.626 503.404, 265.642 509.048, 283.500 509.759 C 304.084 510.579, 318.049 505.213, 332.039 491.109 C 341.750 481.319, 346.042 474.065, 349.025 462.404 C 354.477 441.087, 348.323 419.356, 332.297 403.329 C 326.486 397.519, 323.162 395.168, 315.762 391.636 C 310.668 389.205, 304.475 386.753, 302 386.187 C 294.878 384.560, 283.065 384.069, 276.126 385.112" stroke="none" fill="#04b484" fill-rule="evenodd"/></svg>