<svg xmlns="http://www.w3.org/2000/svg" width="1311" height="305" viewBox="0 0 1311 305" version="1.1"><path d="M 7.241 1.995 C 5.448 3.088, 3.088 5.448, 1.995 7.241 C 0.037 10.452, 0.007 12.569, 0.004 152.102 L -0 293.704 2.250 297.010 C 3.487 298.828, 5.770 301.257, 7.323 302.408 L 10.146 304.500 154.334 304.763 L 298.523 305.026 303.003 302.763 C 305.468 301.518, 308.500 298.971, 309.742 297.102 L 312 293.704 311.996 152.102 C 311.993 12.569, 311.963 10.452, 310.005 7.241 C 308.912 5.448, 306.552 3.088, 304.759 1.995 C 301.546 0.036, 299.426 0.007, 156 0.007 C 12.574 0.007, 10.454 0.036, 7.241 1.995 M 41.476 36.396 C 36.528 43.948, 37.400 64.737, 43.399 82.262 C 48.461 97.050, 54.689 106.671, 66.834 118.465 C 78.613 129.902, 90.126 143.366, 93.081 149.159 L 95.092 153.102 98.293 146.801 C 100.392 142.669, 104.433 137.533, 110.034 131.881 C 117.018 124.834, 120.118 122.525, 127.037 119.215 C 138.561 113.702, 148.819 111.572, 160.415 112.283 C 183.582 113.705, 203.938 126.335, 214.817 146.036 L 218.582 152.853 220.807 148.676 C 223.924 142.825, 236.943 127.701, 246.842 118.431 C 259.178 106.879, 266.197 95.645, 271.411 79.108 C 276.945 61.558, 276.403 36.904, 270.433 34.613 C 268.320 33.802, 268.660 33.241, 266.572 41 C 261.504 59.836, 250.737 73.072, 233.539 81.610 C 225.218 85.741, 223.064 86.382, 216.266 86.752 C 209.043 87.146, 207.416 86.818, 193 82.071 C 177.638 77.011, 164.205 74, 157 74 C 149.785 74, 136.083 77.018, 120.740 81.985 C 102.604 87.857, 97.214 88.269, 86.757 84.578 C 77.043 81.149, 71.655 77.684, 63.377 69.539 C 55.465 61.754, 50.579 53.158, 47.144 40.976 C 46.158 37.479, 44.851 34.450, 44.239 34.246 C 43.628 34.043, 42.384 35.010, 41.476 36.396 M 142.645 123.518 C 129.504 126.848, 115.117 137.091, 107.533 148.516 C 99.617 160.442, 95.990 176.218, 98.041 189.802 C 98.680 194.036, 99.409 197.837, 99.660 198.249 C 99.911 198.661, 101.968 195.299, 104.231 190.778 C 111.320 176.614, 124.115 165.745, 140 160.391 C 144.013 159.038, 148.474 158.532, 156.500 158.518 C 170.373 158.495, 178.712 160.913, 189.389 168.054 C 198.543 174.177, 204.969 181.486, 209.998 191.495 C 214.547 200.551, 215.050 199.981, 215.748 184.988 C 216.589 166.932, 211.138 152.185, 199.134 140.037 C 191.755 132.570, 185.963 128.842, 176.120 125.224 C 167.640 122.106, 151.467 121.282, 142.645 123.518 M 143.275 169.539 C 117.454 176.493, 100.556 202.124, 104.932 227.699 C 108.216 246.895, 122.516 263.334, 140.928 269.081 C 148.493 271.442, 161.625 271.886, 169.499 270.047 C 186.510 266.075, 201.837 251.819, 207.023 235.145 C 209.891 225.924, 209.729 211.678, 206.657 203 C 200.862 186.631, 188.016 174.573, 171.068 169.595 C 164.384 167.632, 150.460 167.604, 143.275 169.539 M 148.994 193.875 C 141.183 196.436, 133.247 203.779, 130.934 210.584 C 126.254 224.352, 133.567 239.761, 147.035 244.512 C 153.483 246.787, 162.564 246.416, 168.538 243.634 C 189.048 234.084, 189.164 205.961, 168.737 195.357 C 165.138 193.490, 152.958 192.575, 148.994 193.875 M 149.274 206.036 C 136.027 212.772, 138.300 232.071, 152.795 235.935 C 159.971 237.847, 168.945 233.769, 171.613 227.383 C 177.699 212.817, 163.196 198.957, 149.274 206.036" stroke="none" fill="#13141c" fill-rule="evenodd"/><path d="M 1228.500 29.585 C 1211.682 33.274, 1196.608 43.910, 1190.196 56.612 C 1184.466 67.962, 1183.511 72.872, 1183.505 91 C 1183.501 105.508, 1183.783 108.406, 1185.841 115 C 1192.389 135.980, 1204.456 147.235, 1225.094 151.614 C 1235.848 153.895, 1258.085 153.053, 1267 150.027 C 1273.569 147.798, 1283.470 142.667, 1284.538 140.939 C 1285.728 139.013, 1286.682 140.148, 1288.368 145.500 L 1290.102 151 1300.551 151 L 1311 151 1311 117 L 1311 83 1278.500 83 L 1246 83 1246 95.500 L 1246 108 1259.500 108 C 1274.760 108, 1275.207 108.288, 1270.561 115.125 C 1264.688 123.767, 1247.250 126.251, 1235.292 120.148 C 1230.430 117.667, 1228.591 115.582, 1225.865 109.463 C 1223.160 103.391, 1222.126 86.528, 1223.926 77.856 C 1226.641 64.777, 1235.424 57.777, 1249.314 57.623 C 1253.266 57.579, 1258.246 58.150, 1260.381 58.892 C 1265.932 60.822, 1271.807 66.455, 1272.583 70.591 L 1273.223 74 1292.111 74 C 1313.590 74, 1312.002 74.822, 1309.876 64.799 C 1306.471 48.755, 1294.668 37.469, 1274.500 30.976 C 1265.223 27.989, 1239.343 27.207, 1228.500 29.585 M 374 90.461 L 374 151 418.343 151 C 459.894 151, 463.048 150.876, 468.427 149.025 C 486.302 142.875, 494.609 126.493, 489.353 107.760 C 487.152 99.916, 480.865 92.835, 473.742 90.178 L 468.573 88.250 473.626 85.689 C 483.817 80.525, 488.695 70.964, 487.766 57.975 C 486.934 46.339, 481.261 38.393, 470 33.090 L 464.500 30.500 419.250 30.211 L 374 29.923 374 90.461 M 499 71.318 C 499 106.403, 499.243 113.456, 500.612 118.068 C 504.665 131.729, 511.972 140.521, 524.086 146.310 C 533.986 151.042, 544.205 153, 559 153 C 590.513 153, 609.927 142.010, 617.220 120.042 C 619.281 113.834, 619.411 111.369, 619.773 71.750 L 620.154 30 600.120 30 L 580.086 30 579.793 69.750 L 579.500 109.500 576.848 114.011 C 573.105 120.377, 567.599 123.274, 559.093 123.352 C 550.438 123.431, 544.610 120.412, 541.013 113.987 L 538.500 109.500 538.197 69.750 L 537.894 30 518.447 30 L 499 30 499 71.318 M 638 90.500 L 638 151 688.500 151 L 739 151 739 135.500 L 739 120 708 120 L 677 120 677 75 L 677 30 657.500 30 L 638 30 638 90.500 M 748 90.500 L 748 151 798.500 151 L 849 151 849 135.500 L 849 120 818 120 L 787 120 787 75 L 787 30 767.500 30 L 748 30 748 90.500 M 858 90.500 L 858 151 878 151 L 898 151 898 129 L 898 107 904.583 107 L 911.166 107 921.815 129 L 932.463 151 954.737 151 L 977.010 151 972.562 142.750 C 970.115 138.213, 964.068 126.864, 959.122 117.532 L 950.131 100.564 954.816 98.210 C 961.229 94.986, 966.579 89.555, 969.799 83 C 972.213 78.084, 972.500 76.385, 972.500 67 C 972.500 57.430, 972.247 56, 969.641 50.858 C 966.277 44.222, 961.343 38.871, 955.344 35.356 C 946.745 30.316, 943.685 30.025, 899.250 30.012 L 858 30 858 90.500 M 989 90.500 L 989 151 1009 151 L 1029 151 1029 90.500 L 1029 30 1009 30 L 989 30 989 90.500 M 1049 90.500 L 1049 151 1066.985 151 L 1084.969 151 1085.235 122.402 L 1085.500 93.804 1110.033 122.152 L 1134.565 150.500 1152.283 150.773 L 1170 151.046 1170 90.523 L 1170 30 1151.515 30 L 1133.030 30 1132.765 58.793 L 1132.500 87.587 1108 58.801 L 1083.500 30.015 1066.250 30.007 L 1049 30 1049 90.500 M 41.476 36.396 C 36.528 43.948, 37.400 64.737, 43.399 82.262 C 48.461 97.050, 54.689 106.671, 66.834 118.465 C 78.613 129.902, 90.126 143.366, 93.081 149.159 L 95.092 153.102 98.293 146.801 C 100.392 142.669, 104.433 137.533, 110.034 131.881 C 117.018 124.834, 120.118 122.525, 127.037 119.215 C 138.561 113.702, 148.819 111.572, 160.415 112.283 C 183.582 113.705, 203.938 126.335, 214.817 146.036 L 218.582 152.853 220.807 148.676 C 223.924 142.825, 236.943 127.701, 246.842 118.431 C 259.178 106.879, 266.197 95.645, 271.411 79.108 C 276.945 61.558, 276.403 36.904, 270.433 34.613 C 268.320 33.802, 268.660 33.241, 266.572 41 C 261.504 59.836, 250.737 73.072, 233.539 81.610 C 225.218 85.741, 223.064 86.382, 216.266 86.752 C 209.043 87.146, 207.416 86.818, 193 82.071 C 177.638 77.011, 164.205 74, 157 74 C 149.785 74, 136.083 77.018, 120.740 81.985 C 102.604 87.857, 97.214 88.269, 86.757 84.578 C 77.043 81.149, 71.655 77.684, 63.377 69.539 C 55.465 61.754, 50.579 53.158, 47.144 40.976 C 46.158 37.479, 44.851 34.450, 44.239 34.246 C 43.628 34.043, 42.384 35.010, 41.476 36.396 M 413 67 L 413 77 427.577 77 L 442.154 77 445.077 74.077 C 447.369 71.784, 448 70.258, 448 67 C 448 63.742, 447.369 62.216, 445.077 59.923 L 442.154 57 427.577 57 L 413 57 413 67 M 898 69 L 898 80 909.750 79.994 C 924.265 79.988, 928.453 78.944, 931.048 74.689 C 934.076 69.723, 933.606 65.406, 929.600 61.400 L 926.200 58 912.100 58 L 898 58 898 69 M 413 112.500 L 413 122 428.918 122 C 437.673 122, 445.565 121.720, 446.455 121.379 C 448.560 120.571, 451 115.805, 451 112.500 C 451 109.195, 448.560 104.429, 446.455 103.621 C 445.565 103.280, 437.673 103, 428.918 103 L 413 103 413 112.500 M 142.645 123.518 C 129.504 126.848, 115.117 137.091, 107.533 148.516 C 99.617 160.442, 95.990 176.218, 98.041 189.802 C 98.680 194.036, 99.409 197.837, 99.660 198.249 C 99.911 198.661, 101.968 195.299, 104.231 190.778 C 111.320 176.614, 124.115 165.745, 140 160.391 C 144.013 159.038, 148.474 158.532, 156.500 158.518 C 170.373 158.495, 178.712 160.913, 189.389 168.054 C 198.543 174.177, 204.969 181.486, 209.998 191.495 C 214.547 200.551, 215.050 199.981, 215.748 184.988 C 216.589 166.932, 211.138 152.185, 199.134 140.037 C 191.755 132.570, 185.963 128.842, 176.120 125.224 C 167.640 122.106, 151.467 121.282, 142.645 123.518 M 143.275 169.539 C 117.454 176.493, 100.556 202.124, 104.932 227.699 C 108.216 246.895, 122.516 263.334, 140.928 269.081 C 148.493 271.442, 161.625 271.886, 169.499 270.047 C 186.510 266.075, 201.837 251.819, 207.023 235.145 C 209.891 225.924, 209.729 211.678, 206.657 203 C 200.862 186.631, 188.016 174.573, 171.068 169.595 C 164.384 167.632, 150.460 167.604, 143.275 169.539 M 828.746 188.025 C 822.944 189.486, 815.430 193.636, 811.533 197.533 C 804.091 204.976, 800.540 216.067, 800.658 231.500 C 800.821 252.820, 807.220 264.991, 821.880 271.865 C 827.066 274.296, 828.504 274.497, 840.500 274.465 C 851.760 274.434, 854.295 274.114, 859.441 272.071 C 870.534 267.669, 878 257.308, 878 246.318 C 878 243.214, 877.782 243, 874.614 243 C 871.343 243, 871.203 243.161, 870.518 247.727 C 868.427 261.673, 859.176 268, 840.879 268 C 821.190 268, 811.316 259.504, 808.754 240.358 C 806.485 223.397, 810.260 208.515, 818.786 200.812 C 824.756 195.419, 831.147 193.697, 843.340 194.196 C 851.882 194.546, 854.320 195.036, 858.651 197.273 C 866.212 201.178, 868.746 205.036, 870.461 215.250 C 871.052 218.771, 871.310 219, 874.685 219 L 878.280 219 877.726 213.637 C 876.587 202.596, 869.828 194.009, 859 189.844 C 852.769 187.447, 835.232 186.393, 828.746 188.025 M 374 231 L 374 274 377.500 274 L 381 274 381 253.500 L 381 233 405 233 L 429 233 429 230 L 429 227 405 227 L 381 227 381 211 L 381 195 407 195 L 433 195 433 191.500 L 433 188 403.500 188 L 374 188 374 231 M 462 231 L 462 274 465.500 274 L 469 274 469 231 L 469 188 465.500 188 L 462 188 462 231 M 505 231 L 505 274 508.988 274 L 512.975 274 513.238 237.801 L 513.500 201.602 540.449 237.801 C 564.695 270.369, 567.679 274, 570.199 274 L 573 274 573 231 L 573 188 569.513 188 L 566.025 188 565.763 223.569 L 565.500 259.138 539 223.596 L 512.500 188.054 508.750 188.027 L 505 188 505 231 M 615.506 229.702 C 606.290 252.691, 598.533 272.063, 598.268 272.750 C 597.934 273.617, 598.966 273.999, 601.643 273.997 L 605.500 273.995 610.409 261.497 L 615.318 249 637.025 249 L 658.732 249 663.733 261.250 L 668.735 273.500 672.367 273.810 C 674.866 274.024, 675.990 273.712, 675.967 272.810 C 675.949 272.090, 668.382 252.825, 659.151 230 L 642.369 188.500 637.316 188.202 L 632.263 187.905 615.506 229.702 M 701.457 189.251 C 701.193 189.938, 701.095 209.176, 701.239 232.001 L 701.500 273.500 705.250 273.810 L 709 274.121 709 237.337 L 709 200.554 736.250 237.241 C 760.451 269.823, 763.808 273.932, 766.250 273.964 L 769 274 769 231 L 769 188 765.513 188 L 762.025 188 761.763 223.427 L 761.500 258.855 735.170 223.427 C 709.424 188.785, 708.764 188, 705.389 188 C 703.491 188, 701.721 188.563, 701.457 189.251 M 909 230.986 L 909 274 941.500 274 L 974 274 974 270.500 L 974 267 945 267 L 916 267 916 250 L 916 233 942 233 L 968 233 968 230 L 968 227 942 227 L 916 227 916 211.015 L 916 195.031 944.750 194.765 L 973.500 194.500 973.500 191.500 L 973.500 188.500 941.250 188.236 L 909 187.972 909 230.986 M 148.994 193.875 C 141.183 196.436, 133.247 203.779, 130.934 210.584 C 126.254 224.352, 133.567 239.761, 147.035 244.512 C 153.483 246.787, 162.564 246.416, 168.538 243.634 C 189.048 234.084, 189.164 205.961, 168.737 195.357 C 165.138 193.490, 152.958 192.575, 148.994 193.875 M 635.838 197.892 C 635.102 199.757, 630.847 210.557, 626.382 221.892 L 618.263 242.500 636.776 242.773 C 646.958 242.923, 655.465 242.869, 655.681 242.653 C 655.896 242.437, 652.061 232.189, 647.157 219.880 C 642.253 207.571, 638.001 196.825, 637.709 196 C 637.349 194.987, 636.742 195.601, 635.838 197.892 M 149.274 206.036 C 136.027 212.772, 138.300 232.071, 152.795 235.935 C 159.971 237.847, 168.945 233.769, 171.613 227.383 C 177.699 212.817, 163.196 198.957, 149.274 206.036" stroke="none" fill="#54e2a5" fill-rule="evenodd"/></svg>